<svg xmlns="http://www.w3.org/2000/svg" xmlns:xlink="http://www.w3.org/1999/xlink" width="500" zoomAndPan="magnify" viewBox="0 0 375 374.999991" height="500" preserveAspectRatio="xMidYMid meet" version="1.0"><defs><g/><clipPath id="adcffdd881"><path d="M 88.566406 58.742188 L 286.179688 58.742188 L 286.179688 237.230469 L 88.566406 237.230469 Z M 88.566406 58.742188 " clip-rule="nonzero"/></clipPath></defs><g clip-path="url(#adcffdd881)"><path fill="#35a8f6" d="M 244.167969 68.664062 C 207.910156 48.574219 163.636719 60.058594 139.867188 93.511719 C 133 103.097656 128.253906 114.152344 125.886719 125.699219 C 125.359375 128.386719 124.882812 131.09375 124.558594 133.816406 C 123.542969 143.339844 123.546875 153.355469 125.710938 162.625 C 133.246094 145.234375 147.445312 127.703125 167.488281 125.457031 C 190.785156 123.421875 200.9375 146.792969 196.398438 166.777344 C 190.929688 194.664062 164.003906 213.890625 136.601562 216.289062 C 120.125 217.996094 103.386719 214.328125 88.574219 207.175781 C 105.8125 224.101562 130.390625 232.808594 154.394531 232.9375 C 181.28125 233.042969 208.828125 221.6875 225.09375 199.777344 C 240.71875 179.546875 243.726562 150.023438 230.054688 128.007812 C 220.832031 112.5 203.875 101.5625 185.738281 100.640625 C 173.171875 99.800781 160.910156 104.503906 150.527344 111.089844 C 185.722656 84.125 231.570312 105.914062 241.886719 146.816406 C 252.859375 188.425781 221.167969 228.65625 180.808594 237.089844 C 205.90625 233.765625 230.230469 221.714844 246.347656 201.910156 C 262.980469 181.714844 269.824219 153.316406 261.890625 128.117188 C 252.105469 95.085938 216.089844 71.828125 181.953125 78.621094 C 170.449219 80.765625 159.894531 86.265625 150.574219 93.171875 C 150.46875 93.207031 150.5625 92.980469 150.976562 92.65625 C 158.09375 86.882812 166.132812 82.21875 174.828125 79.273438 C 219.785156 64.28125 266.945312 100.445312 270.398438 146.410156 C 274.203125 184.582031 249.097656 219.511719 214.585938 233.941406 C 244.925781 224.238281 271.597656 200.972656 281.664062 170.277344 C 294.785156 132.363281 280.226562 87.886719 244.167969 68.664062 Z M 244.167969 68.664062 " fill-opacity="1" fill-rule="nonzero"/></g><g fill="#242424" fill-opacity="1"><g transform="translate(8.405086, 300.478296)"><g><path d="M 13.5625 -33.78125 L 0.234375 -33.78125 L 0.234375 -41.640625 L 36.53125 -41.640625 L 36.53125 -33.78125 L 23.203125 -33.78125 L 23.203125 0 L 13.5625 0 Z M 13.5625 -33.78125 "/></g></g></g><g fill="#242424" fill-opacity="1"><g transform="translate(43.853813, 300.478296)"><g><path d="M 37.171875 -7.734375 L 37.171875 0 L 4.9375 0 L 4.9375 -41.640625 L 36.40625 -41.640625 L 36.40625 -33.90625 L 14.515625 -33.90625 L 14.515625 -24.859375 L 33.84375 -24.859375 L 33.84375 -17.375 L 14.515625 -17.375 L 14.515625 -7.734375 Z M 37.171875 -7.734375 "/></g></g></g><g fill="#242424" fill-opacity="1"><g transform="translate(82.454902, 300.478296)"><g><path d="M 24.859375 0.71875 C 20.617188 0.71875 16.78125 -0.203125 13.34375 -2.046875 C 9.914062 -3.890625 7.21875 -6.445312 5.25 -9.71875 C 3.289062 -13 2.3125 -16.695312 2.3125 -20.8125 C 2.3125 -24.9375 3.289062 -28.632812 5.25 -31.90625 C 7.21875 -35.1875 9.914062 -37.75 13.34375 -39.59375 C 16.78125 -41.4375 20.640625 -42.359375 24.921875 -42.359375 C 28.535156 -42.359375 31.796875 -41.722656 34.703125 -40.453125 C 37.617188 -39.179688 40.070312 -37.359375 42.0625 -34.984375 L 35.875 -29.265625 C 33.050781 -32.515625 29.5625 -34.140625 25.40625 -34.140625 C 22.820312 -34.140625 20.519531 -33.570312 18.5 -32.4375 C 16.476562 -31.3125 14.898438 -29.738281 13.765625 -27.71875 C 12.640625 -25.695312 12.078125 -23.394531 12.078125 -20.8125 C 12.078125 -18.238281 12.640625 -15.941406 13.765625 -13.921875 C 14.898438 -11.898438 16.476562 -10.320312 18.5 -9.1875 C 20.519531 -8.0625 22.820312 -7.5 25.40625 -7.5 C 29.5625 -7.5 33.050781 -9.144531 35.875 -12.4375 L 42.0625 -6.71875 C 40.070312 -4.300781 37.609375 -2.457031 34.671875 -1.1875 C 31.742188 0.0820312 28.472656 0.71875 24.859375 0.71875 Z M 24.859375 0.71875 "/></g></g></g><g fill="#242424" fill-opacity="1"><g transform="translate(124.743646, 300.478296)"><g><path d="M 43.125 -41.640625 L 43.125 0 L 33.484375 0 L 33.484375 -17.078125 L 14.578125 -17.078125 L 14.578125 0 L 4.9375 0 L 4.9375 -41.640625 L 14.578125 -41.640625 L 14.578125 -25.21875 L 33.484375 -25.21875 L 33.484375 -41.640625 Z M 43.125 -41.640625 "/></g></g></g><g fill="#242424" fill-opacity="1"><g transform="translate(171.493267, 300.478296)"><g><path d="M 67.875 -41.640625 L 54.25 0 L 43.90625 0 L 34.734375 -28.203125 L 25.28125 0 L 14.984375 0 L 1.3125 -41.640625 L 11.296875 -41.640625 L 20.703125 -12.375 L 30.515625 -41.640625 L 39.4375 -41.640625 L 48.953125 -12.140625 L 58.65625 -41.640625 Z M 67.875 -41.640625 "/></g></g></g><g fill="#242424" fill-opacity="1"><g transform="translate(239.357702, 300.478296)"><g><path d="M 32.359375 -8.921875 L 13.03125 -8.921875 L 9.34375 0 L -0.53125 0 L 18.03125 -41.640625 L 27.546875 -41.640625 L 46.15625 0 L 36.046875 0 Z M 29.328125 -16.234375 L 22.71875 -32.1875 L 16.125 -16.234375 Z M 29.328125 -16.234375 "/></g></g></g><g fill="#242424" fill-opacity="1"><g transform="translate(283.609217, 300.478296)"><g><path d="M 44.96875 -41.640625 L 26.953125 0 L 17.421875 0 L -0.53125 -41.640625 L 9.875 -41.640625 L 22.546875 -11.890625 L 35.390625 -41.640625 Z M 44.96875 -41.640625 "/></g></g></g><g fill="#242424" fill-opacity="1"><g transform="translate(326.671164, 300.478296)"><g><path d="M 37.171875 -7.734375 L 37.171875 0 L 4.9375 0 L 4.9375 -41.640625 L 36.40625 -41.640625 L 36.40625 -33.90625 L 14.515625 -33.90625 L 14.515625 -24.859375 L 33.84375 -24.859375 L 33.84375 -17.375 L 14.515625 -17.375 L 14.515625 -7.734375 Z M 37.171875 -7.734375 "/></g></g></g></svg>